<svg width="512" height="512" xmlns="http://www.w3.org/2000/svg" xml:space="preserve" version="1.1">

 <g>
  <title>Layer 1</title>
  <g transform="rotate(90 256 255)" id="svg_1">
   <g id="svg_2">
    <path id="svg_3" d="m508.875,492.792l-155.786,-155.787c32.358,-35.927 52.245,-83.296 52.245,-135.339c-0.001,-111.749 -90.917,-202.666 -202.667,-202.666s-202.667,90.917 -202.667,202.667s90.917,202.667 202.667,202.667c52.043,0 99.411,-19.887 135.339,-52.245l155.786,155.786c2.083,2.083 4.813,3.125 7.542,3.125c2.729,0 5.458,-1.042 7.542,-3.125c4.166,-4.167 4.166,-10.917 -0.001,-15.083zm-306.208,-109.792c-99.979,0 -181.333,-81.344 -181.333,-181.333s81.354,-181.334 181.333,-181.334s181.333,81.344 181.333,181.334s-81.354,181.333 -181.333,181.333z"/>
   </g>
  </g>
  <g id="svg_4"/>
  <g id="svg_5"/>
  <g id="svg_6"/>
  <g id="svg_7"/>
  <g id="svg_8"/>
  <g id="svg_9"/>
  <g id="svg_10"/>
  <g id="svg_11"/>
  <g id="svg_12"/>
  <g id="svg_13"/>
  <g id="svg_14"/>
  <g id="svg_15"/>
  <g id="svg_16"/>
  <g id="svg_17"/>
  <g id="svg_18"/>
 </g>
</svg>